<?xml version="1.0" encoding="utf-8"?>
<!-- Generator: Adobe Illustrator 22.0.1, SVG Export Plug-In . SVG Version: 6.00 Build 0)  -->
<svg version="1.1"
	 id="svg2" inkscape:version="0.91 r13725" sodipodi:docname="l3pilot.svg" xmlns:cc="http://creativecommons.org/ns#" xmlns:dc="http://purl.org/dc/elements/1.1/" xmlns:inkscape="http://www.inkscape.org/namespaces/inkscape" xmlns:rdf="http://www.w3.org/1999/02/22-rdf-syntax-ns#" xmlns:sodipodi="http://sodipodi.sourceforge.net/DTD/sodipodi-0.dtd" xmlns:svg="http://www.w3.org/2000/svg"
	 xmlns="http://www.w3.org/2000/svg" xmlns:xlink="http://www.w3.org/1999/xlink" x="0px" y="0px" viewBox="0 0 235.7 133.7"
	 style="enable-background:new 0 0 235.7 133.7;" xml:space="preserve">
<style type="text/css">
	.st0{fill:#FFFFFF;stroke:#C6C7C8;stroke-miterlimit:10;}
	.st1{fill:#009EE0;}
</style>
<sodipodi:namedview  bordercolor="#666666" borderopacity="1.0" fit-margin-bottom="0" fit-margin-left="0" fit-margin-right="0" fit-margin-top="0" id="base" inkscape:current-layer="layer1" inkscape:cx="131.83667" inkscape:cy="112.75228" inkscape:document-units="px" inkscape:pageopacity="0.0" inkscape:pageshadow="2" inkscape:window-height="1056" inkscape:window-maximized="1" inkscape:window-width="1887" inkscape:window-x="33" inkscape:window-y="24" inkscape:zoom="1.2837891" pagecolor="#ffffff" showgrid="false">
	</sodipodi:namedview>
<path class="st0" d="M99.8,60.8c-0.5,0.6-1,1.2-1.7,1.6c-0.6,0.4-1.3,0.7-2,0.8c-0.7,0.2-1.4,0.3-2.1,0.3H83.3l-1.6,6h-11l4.5-16.7
	l0.9-3.2h22.3c0.5,0,0.9,0,1.4,0.1s0.9,0.3,1.3,0.5c0.4,0.3,0.7,0.6,1,1c0.3,0.5,0.4,1,0.4,1.6c0,0.5-0.1,1.1-0.2,1.6l-1.1,3.9
	C100.7,59.2,100.4,60,99.8,60.8L99.8,60.8z M91,54.6c0.1-0.3,0.2-0.6,0.2-1c0-0.2-0.1-0.5-0.2-0.6c-0.3-0.1-0.6-0.2-0.8-0.2h-4
	L84.3,60h3.8c0.5,0,0.9-0.1,1.3-0.4c0.4-0.4,0.6-0.8,0.7-1.3L91,54.6L91,54.6z M104.8,53.4l1-3.9h10.3l-1,3.9H104.8z M100.4,69.5
	l3.9-14.6h10.4l-3.9,14.6H100.4z M113.5,69.5l0.2-0.8c0.1-0.3,0.2-0.6,0.3-0.9c0.2-0.6,0.3-1.1,0.4-1.6l3.5-13.2l0.4-1.5
	c0-0.1,0.1-0.4,0.2-0.8c0.1-0.5,0.2-0.8,0.2-1h10.4l-4.4,16.5c-0.2,0.7-0.4,1.5-0.6,2.2c-0.1,0.3-0.2,0.7-0.3,1.1L113.5,69.5z
	 M151.6,68.5c-0.8,0.7-2,1-3.6,1h-17.7c-1.2,0-2.1-0.2-2.6-0.6c-0.5-0.4-0.8-1.1-0.8-1.8c0-0.7,0.1-1.4,0.3-2.1l1.6-5.8
	c0.4-1.6,1-2.7,1.8-3.4s2-1,3.6-1h17.6c0.9-0.1,1.8,0.1,2.6,0.6c0.6,0.4,0.8,1.1,0.8,1.8s-0.1,1.4-0.3,2.1l-1.6,5.8
	C153,66.6,152.4,67.8,151.6,68.5L151.6,68.5z M144.7,58.9c0.1-0.2,0.1-0.4,0.1-0.6c0-0.4-0.3-0.6-0.9-0.6h-3c-0.3,0-0.6,0.1-0.9,0.3
	c-0.2,0.2-0.4,0.6-0.5,0.9l-1.7,6.5c-0.1,0.2-0.1,0.4-0.1,0.6c0,0.4,0.3,0.6,0.8,0.6h3c0.3,0,0.7-0.1,1-0.3c0.2-0.2,0.4-0.6,0.5-0.9
	L144.7,58.9z M158.8,69.5c-0.9,0-1.8-0.2-2.5-0.6c-0.6-0.5-1-1.3-0.9-2.1c0-0.6,0.1-1.2,0.3-1.8l3.5-13.2h10.4l-0.8,3.2h4.6
	l-0.8,2.9H168l-2.1,7.7c-0.1,0.2-0.1,0.4-0.1,0.6s0.1,0.4,0.3,0.4c0.3,0.1,0.6,0.1,1,0.1h3.5l-0.8,2.9L158.8,69.5z"/>
<path class="st1" d="M233.1,76.7c-1.3,0-2.5,0.4-3.5,1.3l0,0l0.3-1.1h-2.8l-2,7.5h2.9l1-3.7c0.2-1.1,1.2-1.8,2.3-1.8
	c1,0,1.4,0.5,1.1,1.4l-1.1,4.1h2.9l1.3-4.9C236.1,77.6,235,76.7,233.1,76.7L233.1,76.7z M224.9,80.6c0.7-2.6-0.8-4.1-4.2-4.1
	s-5.6,1.4-6.3,4.1s0.8,4.1,4.2,4.1C222,84.6,224.2,83.2,224.9,80.6z M221.8,80.6c-0.3,1.3-1.4,2.2-2.7,2.1c-1.3,0-2-0.7-1.6-2.1
	c0.3-1.3,1.4-2.2,2.7-2.1C221.6,78.5,222.2,79.2,221.8,80.6L221.8,80.6z M214.4,76l0.5-1.8H212l-0.5,1.8H214.4z M214.2,76.8h-2.9
	l-2,7.5h2.9L214.2,76.8z M209.9,76.8H208l0.6-2.4h-2.9l-0.6,2.4h-1.5l-0.5,1.9h1.5l-1,3.6c-0.4,1.6,0.2,2.1,2.1,2.1
	c0.8,0,1.5,0,2.3-0.1l0.5-1.8c-0.4,0-0.7,0-1.1,0c-0.8,0-0.9-0.1-0.7-0.8l0.8-3h1.9L209.9,76.8L209.9,76.8z M202,79.2
	c0.6-2.1-1.4-2.5-4.1-2.5c-2.3,0-4.5,0.3-5.4,2.5h2.9c0.3-0.6,0.9-0.9,2-0.9c1.3,0,1.8,0.3,1.6,0.8c-0.1,0.4-0.3,0.5-1.1,0.6l-3,0.2
	c-2.1,0.1-3.4,0.7-3.9,2.4c-0.4,1.6,0.7,2.3,3,2.3c1.5,0,2.7-0.2,3.8-1c0,0.2-0.1,0.5,0,0.7h2.9c-0.1-0.4-0.1-0.9,0.1-1.4L202,79.2
	L202,79.2z M198.7,80.8l-0.1,0.5c-0.3,1-1.4,1.7-3.1,1.7c-0.8,0-1.2-0.3-1.1-0.9c0.1-0.5,0.4-0.7,1.1-0.8l2-0.2
	C198,81,198.4,80.9,198.7,80.8L198.7,80.8z M190.9,79.2c0.5-1.9-0.7-2.5-2.2-2.5c-1.3,0-2.5,0.4-3.5,1.3c-0.4-1-1.3-1.3-2.3-1.3
	c-1.2,0-2.4,0.5-3.4,1.3l0,0l0.3-1.1H177l-2,7.5h2.9l1.1-4.2c0.2-0.8,0.9-1.3,2-1.3c0.8,0,1.2,0.4,1,1.1l-1.2,4.4h2.9l1.1-4.2
	c0.2-0.8,0.9-1.3,2-1.3c0.8,0,1.2,0.4,1,1.1l-1.1,4.4h2.9L190.9,79.2L190.9,79.2z M174.8,80.6c0.7-2.6-0.8-4.1-4.2-4.1
	s-5.6,1.4-6.3,4.1s0.8,4.1,4.2,4.1C171.8,84.6,174.1,83.2,174.8,80.6L174.8,80.6z M171.7,80.6c-0.3,1.3-1.4,2.2-2.7,2.1
	c-1.3,0-2-0.7-1.6-2.1c0.3-1.3,1.4-2.2,2.7-2.1C171.5,78.5,172.1,79.2,171.7,80.6L171.7,80.6z M164.5,76.8h-1.9l0.6-2.4h-2.9
	l-0.6,2.4h-1.5l-0.5,1.9h1.5l-1,3.6c-0.4,1.6,0.2,2.1,2.1,2.1c0.8,0,1.5,0,2.3-0.1l0.5-1.8c-0.4,0-0.7,0-1.1,0
	c-0.8,0-0.9-0.1-0.7-0.8l0.8-3h1.9L164.5,76.8L164.5,76.8z M155.3,84.3l2-7.5h-2.9l-1,3.8c-0.2,1.1-1.2,1.8-2.3,1.8
	c-1,0-1.4-0.4-1.1-1.7l1-3.9h-3l-1.3,4.8c-0.6,2.3,0.6,3,2.4,3c1.3,0,2.5-0.4,3.5-1.3l0,0l-0.3,1L155.3,84.3z M142.2,84.3h3.5
	l-1.6-9.9h-4l-6.9,9.9h3.5l1-1.6h4.3L142.2,84.3L142.2,84.3z M141.8,80.7H139l2.4-3.7l0,0L141.8,80.7L141.8,80.7z M127.6,83.7
	l1.8-6.8h-2.8l-0.3,1l0,0c-0.4-0.8-1.5-1.1-2.7-1.1c-3,0-4.9,1.7-5.4,3.7s0.3,3.7,3.5,3.7c1.2,0,2.3-0.3,3.2-1l-0.1,0.5
	c-0.4,1.4-1.1,2-2.7,2c-0.9,0-1.6-0.2-1.5-0.9h-3.2c-0.2,2.1,1.4,2.6,4.4,2.6C125.2,87.2,127,86.2,127.6,83.7L127.6,83.7z
	 M125.6,80.4c-0.3,1-1,1.8-2.6,1.8c-1.5,0-1.9-0.8-1.7-1.8c0.3-1,1.1-1.8,2.6-1.8S125.9,79.3,125.6,80.4L125.6,80.4z M117.2,79.4
	c0.5-1.9-0.6-2.7-2.4-2.7c-1.3,0-2.5,0.4-3.5,1.3l0,0l0.3-1.1h-2.8l-2,7.5h2.9l1-3.7c0.2-1.1,1.2-1.8,2.3-1.8c1,0,1.4,0.5,1.1,1.4
	l-1.1,4.1h2.9L117.2,79.4L117.2,79.4z M107.3,76l0.5-1.8h-2.9l-0.5,1.8H107.3z M107.1,76.8h-2.9l-2,7.5h2.9L107.1,76.8L107.1,76.8z
	 M98.1,84.3l5.4-7.5h-3.3l-3.1,4.9l-0.5-4.9h-3.3l1.5,7.5H98.1z M92.8,76l0.5-1.8h-2.9L89.8,76H92.8z M92.6,76.8h-2.9l-2,7.5h2.9
	L92.6,76.8L92.6,76.8z M88,79.5l0.7-2.7c-0.3-0.1-0.6-0.1-1-0.1c-1.3,0-2.6,0.6-3.5,1.7l0,0l0.4-1.5h-2.9l-2,7.5h2.9l0.8-2.9
	c0.4-1.4,1.3-2.2,3-2.2C87,79.2,87.5,79.3,88,79.5L88,79.5z M79.7,79.4c0.9-3.3-0.3-4.9-3.4-4.9h-7.1l-2.6,9.9h6.7
	C76.1,84.4,78.7,83.3,79.7,79.4L79.7,79.4z M76.3,79.4c-0.4,1.4-1.2,2.7-3.1,2.7h-2.7l1.5-5.5h2.5C76.2,76.7,76.8,77.6,76.3,79.4
	L76.3,79.4z M68.9,57c0.3-1,0.4-2,0.4-3c0.1-1.3-0.4-2.6-1.4-3.6c-0.9-0.8-2.4-1.3-4.4-1.3H36.2L34.7,55h11.8c1.2,0,1.8,0.6,1.8,1.8
	c0,0.3,0,0.6-0.1,0.8c-0.1,0.5-1,3.5-1,3.6c-0.2,0.5-0.4,1-0.8,1.4c-0.5,0.5-1.2,0.8-1.9,0.7h-7.9L35,69h8c1.1,0,1.7,0.4,1.7,1.3
	c-0.1,0.5-0.2,1.1-0.3,1.6c-0.1,0.3-0.2,0.7-0.3,1.2l-0.7,2.7c-0.5,1.8-1.7,2.8-3.7,2.7H28l-1.6,5.8h28.4c2.6,0,4.6-0.7,6.2-2.1
	c1.7-1.5,2.8-3.5,3.3-5.7l1.8-6.6c0.2-0.6,0.3-1.2,0.3-1.9c0-0.7-0.1-1.4-0.4-2c-0.3-0.4-0.6-0.8-0.9-1.1c0.6-0.5,1.2-1,1.6-1.7
	c0.7-1,1.2-2,1.5-3.2L68.9,57L68.9,57z M29.5,63.3L46.4,0h-1.7L27.8,63.3h-6.9l7.6-28.5H9.2L1.5,63.2L0,68.9h26.3L9,133.6h1.7
	L28,68.9h5.3l1.5-5.6L29.5,63.3z"/>
</svg>
